<svg width="33" height="33" viewBox="0 0 120 33" fill="none" xmlns="http://www.w3.org/2000/svg">
<g id="Logo" clip-path="url(#clip0_2301_516)">
    <path id="Vector" d="M8.424 31.1838L10.66 33L9.8156 31.4813C8.4835 29.0854 7.78998 26.4434 7.78998 23.7647V15.1477C7.78998 14.3949 7.92492 13.6471 8.18961 12.933C8.93035 10.9346 11.01 9.58659 13.3524 9.58659H14.1175C16.4599 9.58659 18.5395 10.9346 19.2803 12.933C19.545 13.6471 19.6799 14.3949 19.6799 15.1477V23.7647C19.6799 26.4434 18.9864 29.0854 17.6543 31.4813L16.8099 33L19.0459 31.1838C21.7367 28.9981 23.6838 26.1714 24.6615 23.0313L27.4699 14.0112H26.0349V12.274C26.0349 9.01873 24.5969 5.89679 22.0374 3.59497L21.0839 2.73753C19.1349 0.98472 16.4914 0 13.735 0C10.9785 0 8.33499 0.984736 6.38589 2.73757L5.43249 3.59497C2.87294 5.89679 1.435 9.01873 1.435 12.274V14.0112H0L2.80842 23.0313C3.78609 26.1714 5.73316 28.9981 8.424 31.1838Z" fill="white"/>
</g>
<!--<defs>-->
<!--    <clipPath id="clip0_2301_516">-->
<!--        <rect width="33" height="33" fill="white"/>-->
<!--    </clipPath>-->
<!--</defs>-->
</svg>
